<mxfile host="app.diagrams.net" modified="2021-09-08T18:43:14.140Z" agent="5.0 (Windows NT 10.0; Win64; x64) AppleWebKit/537.36 (KHTML, like Gecko) Chrome/93.0.4577.63 Safari/537.36 Edg/93.0.961.38" etag="uR3dREZwkAfH4b6ki2Tf" version="15.1.2" type="github">
  <diagram id="C5RBs43oDa-KdzZeNtuy" name="Page-1">
    <mxGraphModel dx="1658" dy="3552" grid="1" gridSize="10" guides="1" tooltips="1" connect="1" arrows="1" fold="1" page="1" pageScale="1" pageWidth="827" pageHeight="1169" math="0" shadow="0">
      <root>
        <mxCell id="WIyWlLk6GJQsqaUBKTNV-0" />
        <mxCell id="WIyWlLk6GJQsqaUBKTNV-1" parent="WIyWlLk6GJQsqaUBKTNV-0" />
        <mxCell id="WIyWlLk6GJQsqaUBKTNV-3" value="Inicio" style="rounded=1;whiteSpace=wrap;html=1;fontSize=12;glass=0;strokeWidth=1;shadow=0;" parent="WIyWlLk6GJQsqaUBKTNV-1" vertex="1">
          <mxGeometry x="160" y="-10" width="120" height="40" as="geometry" />
        </mxCell>
        <mxCell id="gCaXQq5eLGvO7MBOfzi9-6" value="" style="edgeStyle=orthogonalEdgeStyle;rounded=0;orthogonalLoop=1;jettySize=auto;html=1;" edge="1" parent="WIyWlLk6GJQsqaUBKTNV-1" target="WIyWlLk6GJQsqaUBKTNV-7">
          <mxGeometry relative="1" as="geometry">
            <mxPoint x="220" y="220" as="sourcePoint" />
          </mxGeometry>
        </mxCell>
        <mxCell id="gCaXQq5eLGvO7MBOfzi9-11" value="" style="edgeStyle=orthogonalEdgeStyle;rounded=0;orthogonalLoop=1;jettySize=auto;html=1;" edge="1" parent="WIyWlLk6GJQsqaUBKTNV-1" source="WIyWlLk6GJQsqaUBKTNV-7">
          <mxGeometry relative="1" as="geometry">
            <mxPoint x="70" y="260" as="targetPoint" />
          </mxGeometry>
        </mxCell>
        <mxCell id="gCaXQq5eLGvO7MBOfzi9-13" value="" style="edgeStyle=orthogonalEdgeStyle;rounded=0;orthogonalLoop=1;jettySize=auto;html=1;" edge="1" parent="WIyWlLk6GJQsqaUBKTNV-1" source="WIyWlLk6GJQsqaUBKTNV-7">
          <mxGeometry relative="1" as="geometry">
            <mxPoint x="370" y="260" as="targetPoint" />
          </mxGeometry>
        </mxCell>
        <mxCell id="gCaXQq5eLGvO7MBOfzi9-15" value="" style="edgeStyle=orthogonalEdgeStyle;rounded=0;orthogonalLoop=1;jettySize=auto;html=1;" edge="1" parent="WIyWlLk6GJQsqaUBKTNV-1" source="WIyWlLk6GJQsqaUBKTNV-7" target="gCaXQq5eLGvO7MBOfzi9-14">
          <mxGeometry relative="1" as="geometry">
            <Array as="points">
              <mxPoint x="180" y="300" />
              <mxPoint x="200" y="300" />
            </Array>
          </mxGeometry>
        </mxCell>
        <mxCell id="WIyWlLk6GJQsqaUBKTNV-7" value="Data Posterior ao evento" style="rounded=1;whiteSpace=wrap;html=1;fontSize=12;glass=0;strokeWidth=1;shadow=0;" parent="WIyWlLk6GJQsqaUBKTNV-1" vertex="1">
          <mxGeometry x="160" y="240" width="120" height="40" as="geometry" />
        </mxCell>
        <mxCell id="gCaXQq5eLGvO7MBOfzi9-7" value="" style="edgeStyle=orthogonalEdgeStyle;rounded=0;orthogonalLoop=1;jettySize=auto;html=1;endArrow=none;" edge="1" parent="WIyWlLk6GJQsqaUBKTNV-1" target="WIyWlLk6GJQsqaUBKTNV-7">
          <mxGeometry relative="1" as="geometry">
            <mxPoint x="220" y="220" as="sourcePoint" />
            <mxPoint x="220" y="290" as="targetPoint" />
          </mxGeometry>
        </mxCell>
        <mxCell id="gCaXQq5eLGvO7MBOfzi9-8" value="Data Atual" style="whiteSpace=wrap;html=1;aspect=fixed;" vertex="1" parent="WIyWlLk6GJQsqaUBKTNV-1">
          <mxGeometry x="185" y="150" width="70" height="70" as="geometry" />
        </mxCell>
        <mxCell id="gCaXQq5eLGvO7MBOfzi9-24" value="" style="edgeStyle=orthogonalEdgeStyle;rounded=0;orthogonalLoop=1;jettySize=auto;html=1;exitX=0.5;exitY=1;exitDx=0;exitDy=0;" edge="1" parent="WIyWlLk6GJQsqaUBKTNV-1" source="gCaXQq5eLGvO7MBOfzi9-51" target="gCaXQq5eLGvO7MBOfzi9-23">
          <mxGeometry relative="1" as="geometry">
            <mxPoint x="20" y="290" as="sourcePoint" />
          </mxGeometry>
        </mxCell>
        <mxCell id="gCaXQq5eLGvO7MBOfzi9-26" value="" style="edgeStyle=orthogonalEdgeStyle;rounded=0;orthogonalLoop=1;jettySize=auto;html=1;exitX=0.5;exitY=1;exitDx=0;exitDy=0;" edge="1" parent="WIyWlLk6GJQsqaUBKTNV-1" source="gCaXQq5eLGvO7MBOfzi9-52" target="gCaXQq5eLGvO7MBOfzi9-25">
          <mxGeometry relative="1" as="geometry">
            <mxPoint x="420" y="290" as="sourcePoint" />
          </mxGeometry>
        </mxCell>
        <mxCell id="gCaXQq5eLGvO7MBOfzi9-22" value="" style="edgeStyle=orthogonalEdgeStyle;rounded=0;orthogonalLoop=1;jettySize=auto;html=1;" edge="1" parent="WIyWlLk6GJQsqaUBKTNV-1" source="gCaXQq5eLGvO7MBOfzi9-14" target="gCaXQq5eLGvO7MBOfzi9-8">
          <mxGeometry relative="1" as="geometry">
            <Array as="points">
              <mxPoint x="290" y="380" />
              <mxPoint x="290" y="185" />
            </Array>
          </mxGeometry>
        </mxCell>
        <mxCell id="gCaXQq5eLGvO7MBOfzi9-56" style="edgeStyle=orthogonalEdgeStyle;rounded=0;orthogonalLoop=1;jettySize=auto;html=1;exitX=0;exitY=0;exitDx=10;exitDy=130;exitPerimeter=0;" edge="1" parent="WIyWlLk6GJQsqaUBKTNV-1" source="gCaXQq5eLGvO7MBOfzi9-14">
          <mxGeometry relative="1" as="geometry">
            <mxPoint x="20" y="540" as="targetPoint" />
          </mxGeometry>
        </mxCell>
        <mxCell id="gCaXQq5eLGvO7MBOfzi9-14" value="Banco de Dados" style="shape=cube;whiteSpace=wrap;html=1;boundedLbl=1;backgroundOutline=1;darkOpacity=0.05;darkOpacity2=0.1;" vertex="1" parent="WIyWlLk6GJQsqaUBKTNV-1">
          <mxGeometry x="160" y="310" width="120" height="140" as="geometry" />
        </mxCell>
        <mxCell id="gCaXQq5eLGvO7MBOfzi9-23" value="Infelizmente !&lt;br&gt;&lt;br&gt;O seu Cadastro não foi &lt;br&gt;permitido, prazo finalizado" style="strokeWidth=2;html=1;shape=mxgraph.flowchart.display;whiteSpace=wrap;" vertex="1" parent="WIyWlLk6GJQsqaUBKTNV-1">
          <mxGeometry x="-50" y="335" width="140" height="90" as="geometry" />
        </mxCell>
        <mxCell id="gCaXQq5eLGvO7MBOfzi9-28" value="" style="edgeStyle=orthogonalEdgeStyle;rounded=0;orthogonalLoop=1;jettySize=auto;html=1;" edge="1" parent="WIyWlLk6GJQsqaUBKTNV-1" source="gCaXQq5eLGvO7MBOfzi9-25" target="gCaXQq5eLGvO7MBOfzi9-27">
          <mxGeometry relative="1" as="geometry" />
        </mxCell>
        <mxCell id="gCaXQq5eLGvO7MBOfzi9-25" value="Ficaremos felizes com a sua presença !&amp;nbsp;" style="strokeWidth=2;html=1;shape=mxgraph.flowchart.display;whiteSpace=wrap;" vertex="1" parent="WIyWlLk6GJQsqaUBKTNV-1">
          <mxGeometry x="345" y="335" width="150" height="85" as="geometry" />
        </mxCell>
        <mxCell id="gCaXQq5eLGvO7MBOfzi9-34" value="" style="edgeStyle=orthogonalEdgeStyle;rounded=0;orthogonalLoop=1;jettySize=auto;html=1;" edge="1" parent="WIyWlLk6GJQsqaUBKTNV-1" source="gCaXQq5eLGvO7MBOfzi9-27" target="gCaXQq5eLGvO7MBOfzi9-33">
          <mxGeometry relative="1" as="geometry" />
        </mxCell>
        <mxCell id="gCaXQq5eLGvO7MBOfzi9-35" value="" style="edgeStyle=orthogonalEdgeStyle;rounded=0;orthogonalLoop=1;jettySize=auto;html=1;" edge="1" parent="WIyWlLk6GJQsqaUBKTNV-1" source="gCaXQq5eLGvO7MBOfzi9-27" target="gCaXQq5eLGvO7MBOfzi9-33">
          <mxGeometry relative="1" as="geometry" />
        </mxCell>
        <mxCell id="gCaXQq5eLGvO7MBOfzi9-37" value="" style="edgeStyle=orthogonalEdgeStyle;rounded=0;orthogonalLoop=1;jettySize=auto;html=1;" edge="1" parent="WIyWlLk6GJQsqaUBKTNV-1" source="gCaXQq5eLGvO7MBOfzi9-27" target="gCaXQq5eLGvO7MBOfzi9-36">
          <mxGeometry relative="1" as="geometry" />
        </mxCell>
        <mxCell id="gCaXQq5eLGvO7MBOfzi9-39" value="" style="edgeStyle=orthogonalEdgeStyle;rounded=0;orthogonalLoop=1;jettySize=auto;html=1;" edge="1" parent="WIyWlLk6GJQsqaUBKTNV-1" source="gCaXQq5eLGvO7MBOfzi9-27" target="gCaXQq5eLGvO7MBOfzi9-38">
          <mxGeometry relative="1" as="geometry" />
        </mxCell>
        <mxCell id="gCaXQq5eLGvO7MBOfzi9-27" value="confirme sua presença realizando o cadastro:&lt;br&gt;&lt;br&gt;informe sua Idade , e-mail e senha" style="strokeWidth=2;html=1;shape=mxgraph.flowchart.display;whiteSpace=wrap;" vertex="1" parent="WIyWlLk6GJQsqaUBKTNV-1">
          <mxGeometry x="327.5" y="460" width="185" height="110" as="geometry" />
        </mxCell>
        <mxCell id="gCaXQq5eLGvO7MBOfzi9-42" style="edgeStyle=orthogonalEdgeStyle;rounded=0;orthogonalLoop=1;jettySize=auto;html=1;entryX=1;entryY=0.5;entryDx=0;entryDy=0;" edge="1" parent="WIyWlLk6GJQsqaUBKTNV-1" source="gCaXQq5eLGvO7MBOfzi9-33" target="gCaXQq5eLGvO7MBOfzi9-40">
          <mxGeometry relative="1" as="geometry" />
        </mxCell>
        <mxCell id="gCaXQq5eLGvO7MBOfzi9-33" value="E-mail" style="shape=parallelogram;perimeter=parallelogramPerimeter;whiteSpace=wrap;html=1;fixedSize=1;strokeWidth=2;" vertex="1" parent="WIyWlLk6GJQsqaUBKTNV-1">
          <mxGeometry x="530" y="580" width="120" height="60" as="geometry" />
        </mxCell>
        <mxCell id="gCaXQq5eLGvO7MBOfzi9-43" style="edgeStyle=orthogonalEdgeStyle;rounded=0;orthogonalLoop=1;jettySize=auto;html=1;entryX=-0.012;entryY=0.675;entryDx=0;entryDy=0;entryPerimeter=0;" edge="1" parent="WIyWlLk6GJQsqaUBKTNV-1" source="gCaXQq5eLGvO7MBOfzi9-36" target="gCaXQq5eLGvO7MBOfzi9-40">
          <mxGeometry relative="1" as="geometry" />
        </mxCell>
        <mxCell id="gCaXQq5eLGvO7MBOfzi9-36" value="Idade" style="shape=parallelogram;perimeter=parallelogramPerimeter;whiteSpace=wrap;html=1;fixedSize=1;strokeWidth=2;" vertex="1" parent="WIyWlLk6GJQsqaUBKTNV-1">
          <mxGeometry x="200" y="585" width="120" height="60" as="geometry" />
        </mxCell>
        <mxCell id="gCaXQq5eLGvO7MBOfzi9-41" value="" style="edgeStyle=orthogonalEdgeStyle;rounded=0;orthogonalLoop=1;jettySize=auto;html=1;" edge="1" parent="WIyWlLk6GJQsqaUBKTNV-1" source="gCaXQq5eLGvO7MBOfzi9-38" target="gCaXQq5eLGvO7MBOfzi9-40">
          <mxGeometry relative="1" as="geometry" />
        </mxCell>
        <mxCell id="gCaXQq5eLGvO7MBOfzi9-38" value="Senha" style="shape=parallelogram;perimeter=parallelogramPerimeter;whiteSpace=wrap;html=1;fixedSize=1;strokeWidth=2;" vertex="1" parent="WIyWlLk6GJQsqaUBKTNV-1">
          <mxGeometry x="360" y="630" width="120" height="60" as="geometry" />
        </mxCell>
        <mxCell id="gCaXQq5eLGvO7MBOfzi9-45" value="" style="edgeStyle=orthogonalEdgeStyle;rounded=0;orthogonalLoop=1;jettySize=auto;html=1;" edge="1" parent="WIyWlLk6GJQsqaUBKTNV-1" source="gCaXQq5eLGvO7MBOfzi9-40" target="gCaXQq5eLGvO7MBOfzi9-44">
          <mxGeometry relative="1" as="geometry" />
        </mxCell>
        <mxCell id="gCaXQq5eLGvO7MBOfzi9-48" value="" style="edgeStyle=orthogonalEdgeStyle;rounded=0;orthogonalLoop=1;jettySize=auto;html=1;" edge="1" parent="WIyWlLk6GJQsqaUBKTNV-1" source="gCaXQq5eLGvO7MBOfzi9-40" target="gCaXQq5eLGvO7MBOfzi9-44">
          <mxGeometry relative="1" as="geometry" />
        </mxCell>
        <mxCell id="gCaXQq5eLGvO7MBOfzi9-50" style="edgeStyle=orthogonalEdgeStyle;rounded=0;orthogonalLoop=1;jettySize=auto;html=1;exitX=0.5;exitY=1;exitDx=0;exitDy=0;" edge="1" parent="WIyWlLk6GJQsqaUBKTNV-1" source="gCaXQq5eLGvO7MBOfzi9-40" target="gCaXQq5eLGvO7MBOfzi9-49">
          <mxGeometry relative="1" as="geometry" />
        </mxCell>
        <mxCell id="gCaXQq5eLGvO7MBOfzi9-40" value="Idade maior de 18 anos ?" style="whiteSpace=wrap;html=1;aspect=fixed;" vertex="1" parent="WIyWlLk6GJQsqaUBKTNV-1">
          <mxGeometry x="380" y="750" width="80" height="80" as="geometry" />
        </mxCell>
        <mxCell id="gCaXQq5eLGvO7MBOfzi9-53" style="edgeStyle=orthogonalEdgeStyle;rounded=0;orthogonalLoop=1;jettySize=auto;html=1;exitX=0;exitY=0.5;exitDx=0;exitDy=0;entryX=0;entryY=0;entryDx=20;entryDy=140;entryPerimeter=0;" edge="1" parent="WIyWlLk6GJQsqaUBKTNV-1" source="gCaXQq5eLGvO7MBOfzi9-44" target="gCaXQq5eLGvO7MBOfzi9-14">
          <mxGeometry relative="1" as="geometry" />
        </mxCell>
        <mxCell id="gCaXQq5eLGvO7MBOfzi9-70" style="edgeStyle=orthogonalEdgeStyle;rounded=0;orthogonalLoop=1;jettySize=auto;html=1;exitX=0.5;exitY=1;exitDx=0;exitDy=0;entryX=0.572;entryY=-0.01;entryDx=0;entryDy=0;entryPerimeter=0;" edge="1" parent="WIyWlLk6GJQsqaUBKTNV-1" source="gCaXQq5eLGvO7MBOfzi9-44" target="gCaXQq5eLGvO7MBOfzi9-71">
          <mxGeometry relative="1" as="geometry">
            <mxPoint x="120" y="990" as="targetPoint" />
          </mxGeometry>
        </mxCell>
        <mxCell id="gCaXQq5eLGvO7MBOfzi9-44" value="Sim" style="rhombus;whiteSpace=wrap;html=1;" vertex="1" parent="WIyWlLk6GJQsqaUBKTNV-1">
          <mxGeometry x="310" y="870" width="80" height="80" as="geometry" />
        </mxCell>
        <mxCell id="gCaXQq5eLGvO7MBOfzi9-54" style="edgeStyle=orthogonalEdgeStyle;rounded=0;orthogonalLoop=1;jettySize=auto;html=1;exitX=1;exitY=0.5;exitDx=0;exitDy=0;" edge="1" parent="WIyWlLk6GJQsqaUBKTNV-1" source="gCaXQq5eLGvO7MBOfzi9-49" target="gCaXQq5eLGvO7MBOfzi9-55">
          <mxGeometry relative="1" as="geometry">
            <mxPoint x="550" y="720" as="targetPoint" />
          </mxGeometry>
        </mxCell>
        <mxCell id="gCaXQq5eLGvO7MBOfzi9-49" value="Não" style="rhombus;whiteSpace=wrap;html=1;" vertex="1" parent="WIyWlLk6GJQsqaUBKTNV-1">
          <mxGeometry x="450" y="870" width="80" height="80" as="geometry" />
        </mxCell>
        <mxCell id="gCaXQq5eLGvO7MBOfzi9-51" value="Sim" style="rhombus;whiteSpace=wrap;html=1;" vertex="1" parent="WIyWlLk6GJQsqaUBKTNV-1">
          <mxGeometry x="-10" y="220" width="80" height="80" as="geometry" />
        </mxCell>
        <mxCell id="gCaXQq5eLGvO7MBOfzi9-52" value="Não" style="rhombus;whiteSpace=wrap;html=1;" vertex="1" parent="WIyWlLk6GJQsqaUBKTNV-1">
          <mxGeometry x="370" y="220" width="80" height="80" as="geometry" />
        </mxCell>
        <mxCell id="gCaXQq5eLGvO7MBOfzi9-55" value="Infelizmente !&lt;br&gt;&lt;br&gt;nosso evento é apenas para&lt;br&gt;&amp;nbsp;maiores de 18 anos , mas &lt;br&gt;não fique triste contamos com &lt;br&gt;a sua presença em um &lt;br&gt;futuro próximo ." style="strokeWidth=2;html=1;shape=mxgraph.flowchart.display;whiteSpace=wrap;" vertex="1" parent="WIyWlLk6GJQsqaUBKTNV-1">
          <mxGeometry x="540" y="670" width="270" height="110" as="geometry" />
        </mxCell>
        <mxCell id="gCaXQq5eLGvO7MBOfzi9-58" style="edgeStyle=orthogonalEdgeStyle;rounded=0;orthogonalLoop=1;jettySize=auto;html=1;exitX=1;exitY=0.5;exitDx=0;exitDy=0;entryX=0;entryY=0;entryDx=20;entryDy=140;entryPerimeter=0;" edge="1" parent="WIyWlLk6GJQsqaUBKTNV-1" source="gCaXQq5eLGvO7MBOfzi9-57" target="gCaXQq5eLGvO7MBOfzi9-14">
          <mxGeometry relative="1" as="geometry">
            <mxPoint x="140" y="450" as="targetPoint" />
            <Array as="points">
              <mxPoint x="100" y="585" />
              <mxPoint x="100" y="450" />
            </Array>
          </mxGeometry>
        </mxCell>
        <mxCell id="gCaXQq5eLGvO7MBOfzi9-62" value="" style="edgeStyle=orthogonalEdgeStyle;rounded=0;orthogonalLoop=1;jettySize=auto;html=1;" edge="1" parent="WIyWlLk6GJQsqaUBKTNV-1" source="gCaXQq5eLGvO7MBOfzi9-57" target="gCaXQq5eLGvO7MBOfzi9-61">
          <mxGeometry relative="1" as="geometry" />
        </mxCell>
        <mxCell id="gCaXQq5eLGvO7MBOfzi9-57" value="Retorno contagem de participantes" style="whiteSpace=wrap;html=1;aspect=fixed;" vertex="1" parent="WIyWlLk6GJQsqaUBKTNV-1">
          <mxGeometry x="-20" y="545" width="80" height="80" as="geometry" />
        </mxCell>
        <mxCell id="gCaXQq5eLGvO7MBOfzi9-69" style="edgeStyle=orthogonalEdgeStyle;rounded=0;orthogonalLoop=1;jettySize=auto;html=1;exitX=0.5;exitY=1;exitDx=0;exitDy=0;entryX=0;entryY=0.471;entryDx=0;entryDy=0;entryPerimeter=0;" edge="1" parent="WIyWlLk6GJQsqaUBKTNV-1" source="gCaXQq5eLGvO7MBOfzi9-59" target="gCaXQq5eLGvO7MBOfzi9-71">
          <mxGeometry relative="1" as="geometry">
            <mxPoint x="100" y="970" as="targetPoint" />
          </mxGeometry>
        </mxCell>
        <mxCell id="gCaXQq5eLGvO7MBOfzi9-59" value="Sim" style="rhombus;whiteSpace=wrap;html=1;" vertex="1" parent="WIyWlLk6GJQsqaUBKTNV-1">
          <mxGeometry x="60" y="720" width="80" height="80" as="geometry" />
        </mxCell>
        <mxCell id="gCaXQq5eLGvO7MBOfzi9-75" style="edgeStyle=orthogonalEdgeStyle;rounded=0;orthogonalLoop=1;jettySize=auto;html=1;entryX=0.5;entryY=0;entryDx=0;entryDy=0;" edge="1" parent="WIyWlLk6GJQsqaUBKTNV-1" source="gCaXQq5eLGvO7MBOfzi9-60" target="gCaXQq5eLGvO7MBOfzi9-8">
          <mxGeometry relative="1" as="geometry">
            <Array as="points">
              <mxPoint x="-110" y="-70" />
              <mxPoint x="300" y="-70" />
              <mxPoint x="300" y="120" />
              <mxPoint x="220" y="120" />
            </Array>
          </mxGeometry>
        </mxCell>
        <mxCell id="gCaXQq5eLGvO7MBOfzi9-76" style="edgeStyle=orthogonalEdgeStyle;rounded=0;orthogonalLoop=1;jettySize=auto;html=1;exitX=0.5;exitY=1;exitDx=0;exitDy=0;" edge="1" parent="WIyWlLk6GJQsqaUBKTNV-1" source="gCaXQq5eLGvO7MBOfzi9-60" target="gCaXQq5eLGvO7MBOfzi9-77">
          <mxGeometry relative="1" as="geometry">
            <mxPoint x="-70" y="880" as="targetPoint" />
          </mxGeometry>
        </mxCell>
        <mxCell id="gCaXQq5eLGvO7MBOfzi9-60" value="Não" style="rhombus;whiteSpace=wrap;html=1;" vertex="1" parent="WIyWlLk6GJQsqaUBKTNV-1">
          <mxGeometry x="-110" y="720" width="80" height="80" as="geometry" />
        </mxCell>
        <mxCell id="gCaXQq5eLGvO7MBOfzi9-67" style="edgeStyle=orthogonalEdgeStyle;rounded=0;orthogonalLoop=1;jettySize=auto;html=1;exitX=1;exitY=0.5;exitDx=0;exitDy=0;entryX=0.5;entryY=0;entryDx=0;entryDy=0;" edge="1" parent="WIyWlLk6GJQsqaUBKTNV-1" source="gCaXQq5eLGvO7MBOfzi9-61" target="gCaXQq5eLGvO7MBOfzi9-59">
          <mxGeometry relative="1" as="geometry" />
        </mxCell>
        <mxCell id="gCaXQq5eLGvO7MBOfzi9-68" style="edgeStyle=orthogonalEdgeStyle;rounded=0;orthogonalLoop=1;jettySize=auto;html=1;exitX=0;exitY=0.5;exitDx=0;exitDy=0;entryX=0.5;entryY=0;entryDx=0;entryDy=0;" edge="1" parent="WIyWlLk6GJQsqaUBKTNV-1" source="gCaXQq5eLGvO7MBOfzi9-61" target="gCaXQq5eLGvO7MBOfzi9-60">
          <mxGeometry relative="1" as="geometry" />
        </mxCell>
        <mxCell id="gCaXQq5eLGvO7MBOfzi9-61" value="&amp;gt;=100" style="rhombus;whiteSpace=wrap;html=1;" vertex="1" parent="WIyWlLk6GJQsqaUBKTNV-1">
          <mxGeometry x="-20" y="660" width="80" height="80" as="geometry" />
        </mxCell>
        <mxCell id="gCaXQq5eLGvO7MBOfzi9-71" value="Infelizmente !&lt;br&gt;&lt;br&gt;todos os lugares já estão reservados , mas não fique triste te esperamos em um futoro próximo ." style="strokeWidth=2;html=1;shape=mxgraph.flowchart.display;whiteSpace=wrap;" vertex="1" parent="WIyWlLk6GJQsqaUBKTNV-1">
          <mxGeometry x="130" y="990" width="180" height="170" as="geometry" />
        </mxCell>
        <mxCell id="gCaXQq5eLGvO7MBOfzi9-74" style="edgeStyle=orthogonalEdgeStyle;rounded=0;orthogonalLoop=1;jettySize=auto;html=1;exitX=0;exitY=0.5;exitDx=0;exitDy=0;entryX=0;entryY=0;entryDx=0;entryDy=0;" edge="1" parent="WIyWlLk6GJQsqaUBKTNV-1" source="gCaXQq5eLGvO7MBOfzi9-72" target="gCaXQq5eLGvO7MBOfzi9-61">
          <mxGeometry relative="1" as="geometry">
            <Array as="points">
              <mxPoint x="-70" y="85" />
              <mxPoint x="-70" y="680" />
            </Array>
          </mxGeometry>
        </mxCell>
        <mxCell id="gCaXQq5eLGvO7MBOfzi9-72" value="número de participantes" style="whiteSpace=wrap;html=1;aspect=fixed;" vertex="1" parent="WIyWlLk6GJQsqaUBKTNV-1">
          <mxGeometry x="30" y="-25" width="70" height="70" as="geometry" />
        </mxCell>
        <mxCell id="gCaXQq5eLGvO7MBOfzi9-73" value="" style="edgeStyle=orthogonalEdgeStyle;rounded=0;orthogonalLoop=1;jettySize=auto;html=1;endArrow=none;" edge="1" parent="WIyWlLk6GJQsqaUBKTNV-1" source="WIyWlLk6GJQsqaUBKTNV-3" target="gCaXQq5eLGvO7MBOfzi9-72">
          <mxGeometry relative="1" as="geometry">
            <mxPoint x="220" y="30" as="sourcePoint" />
            <mxPoint x="220" y="150" as="targetPoint" />
          </mxGeometry>
        </mxCell>
        <mxCell id="gCaXQq5eLGvO7MBOfzi9-77" value="Cadastro Realizado com Sucesso !&amp;nbsp;" style="strokeWidth=2;html=1;shape=mxgraph.flowchart.display;whiteSpace=wrap;" vertex="1" parent="WIyWlLk6GJQsqaUBKTNV-1">
          <mxGeometry x="-120" y="850" width="100" height="60" as="geometry" />
        </mxCell>
      </root>
    </mxGraphModel>
  </diagram>
</mxfile>
